# xmcd
# 
# Track frame offsets:
#     150
#     12097
#     24327
#     43777
#     59277
#     76687
#     90245
#     105760
#     122154
#     138502
#     155287
#     167862
#     183525
#     202345
# 
# Disc length: 2913
# 
# Revision: 2
# Processed by: cddbd v1.5.2PL0 Copyright (c) Steve Scherf et al.
# Submitted via: BonkEnc v1.0.8
# 
DISCID=a90b5f0e
DTITLE=Roberta Miranda - Momentos
DYEAR=0
DGENRE=
TTITLE0=Rei dos Reis
TTITLE1=Marcas
TTITLE2=Tinha que Acontecer
TTITLE3=Desespero de uma Noite
TTITLE4=Um Minuto a Mais
TTITLE5=s Vezes Tu,  s Vezes Eu
TTITLE6=Meu Grande Bem
TTITLE7=Tudo em Voc  me Atrai
TTITLE8=V  com Deus
TTITLE9=Champagne
TTITLE10=Querido Velho
TTITLE11=Velhos Tempos
TTITLE12=Cabecinha no Ombro
TTITLE13=Madrugada Amiga
EXTD=
EXTT0=
EXTT1=
EXTT2=
EXTT3=
EXTT4=
EXTT5=
EXTT6=
EXTT7=
EXTT8=
EXTT9=
EXTT10=
EXTT11=
EXTT12=
EXTT13=
PLAYORDER=
